<svg xmlns="http://www.w3.org/2000/svg" viewBox="0 0 50 50"><path fill="#f37735" d="M30 29.5a3.5 3.5 0 0 0-3.5 3.5v9a3.5 3.5 0 0 0 3.5 3.5h15a3.5 3.5 0 0 0 3.5-3.5v-9a3.5 3.5 0 0 0-3.5-3.5zm9.985 3.875c2.04 0 2.308 1.613 2.343 2.11l.016.14h-1.188l-.015-.11c-.053-.51-.309-1.124-1.204-1.124-1.472 0-1.752 1.713-1.797 2.578.448-.54 1.09-.813 1.891-.813 2.45 0 2.515 2.413 2.515 2.688 0 1.031-.587 2.781-2.78 2.781-1.872 0-2.813-1.31-2.813-3.89-.002-.946.113-1.747.36-2.407.476-1.277 1.404-1.953 2.671-1.953zm-5.313.032h.953v8.14h-1.063v-.078h-.124v-5.531h-2.063v-1.016l.125-.016c1.181-.042 1.944-.285 2.14-1.39zm5.188 3.765c-1.485.041-1.5 1.606-1.5 1.672 0 1.285.942 1.625 1.5 1.625 1.417 0 1.452-1.458 1.452-1.625 0-.172-.034-1.672-1.452-1.672z"/></svg>