<svg xmlns="http://www.w3.org/2000/svg" viewBox="0 0 32 32"><path fill="#e6e6e6" d="M6.132 2.165L4.865 3.431 6.75 5.315 8.015 4.05zm16.537 0L20.784 4.05l1.266 1.265 1.885-1.883zm-8.269.563a8.71 8.71 0 0 0-.9.057h-.028c-3.65.418-6.553 3.367-7.06 7.002-.405 2.925.801 5.576 2.813 7.285A4.719 4.719 0 0 1 10.8 19.8v5.4h2.053c.313.538.882.9 1.547.9.664 0 1.234-.362 1.547-.9H18v-3.6h.085v-1.07c0-1.317.684-2.65 1.8-3.683 1.49-1.491 2.615-3.61 2.615-6.047 0-4.447-3.66-8.114-8.1-8.072zm0 1.8c3.477-.049 6.3 2.799 6.3 6.272 0 1.885-.872 3.544-2.082 4.753l.03.029a6.999 6.999 0 0 0-2.195 4.218h-3.938c-.197-1.544-.86-3.034-2.11-4.107-1.588-1.352-2.537-3.385-2.22-5.68.393-2.837 2.692-5.116 5.512-5.428.235-.03.47-.054.703-.057zM1.8 10.8v1.8h2.7v-1.8zm22.5 0v1.8H27v-1.8zM6.75 18.085l-1.885 1.883 1.267 1.267 1.882-1.885zm15.3 0l-1.265 1.265 1.883 1.885 1.267-1.267zM12.6 21.6h3.6v1.8h-3.6z"/><path fill="#ffa6a6" d="M20.5 24.5H22v5.1c0 .85.55 1.4 1.5 1.4.3 0 .6-.3.9-.6.3-.3.6-.75.6-1.35v-4.5h1.5V30c0 .3-.05 1.3.55 1.3.8 0 1-1.15 1-1.15h.45s-.15 1.9-1.6 1.9c-.95 0-1.35-.3-1.7-1.5l-1.05 1.05c-.3.25-.7.45-1.2.45-.4 0-1.05-.2-1.6-.5 0 1.15.2 2.1.2 3 0 .5-.2 1-.75 1-.5 0-.75-.4-.75-1 0-.75.5-2.4.5-4.2l-.05-5.85z"/></svg>