<svg xmlns="http://www.w3.org/2000/svg" viewBox="0 0 32 32"><path fill="#e6e6e6" d="M4.77 1.684l-.986.984L5.25 4.134l.984-.984zm12.862 0L16.165 3.15l.985.984 1.466-1.465zm-6.432.438a6.774 6.774 0 0 0-.7.044h-.022c-2.838.325-5.096 2.62-5.49 5.446-.315 2.275.623 4.337 2.187 5.666A3.67 3.67 0 0 1 8.4 15.4v4.2h1.597c.243.419.686.7 1.203.7s.96-.281 1.203-.7H14v-2.8h.066v-.832c0-1.024.532-2.061 1.4-2.865 1.159-1.16 2.034-2.808 2.034-4.703 0-3.459-2.846-6.311-6.3-6.278zm0 1.4c2.704-.038 4.9 2.177 4.9 4.878 0 1.466-.678 2.757-1.62 3.697l.023.022a5.444 5.444 0 0 0-1.706 3.281H9.734c-.153-1.2-.67-2.36-1.64-3.194-1.236-1.052-1.975-2.633-1.728-4.418.306-2.207 2.094-3.98 4.287-4.222.183-.023.366-.041.547-.044zM1.4 8.4v1.4h2.1V8.4zm17.5 0v1.4H21V8.4zM5.25 14.066L3.784 15.53l.985.985 1.464-1.466zm11.9 0l-.984.984 1.465 1.466.985-.985zM9.8 16.8h2.8v1.4H9.8z"/><path fill="#ffa6a6" d="M15.5 14.5H17v5.1c0 .85.55 1.4 1.5 1.4.3 0 .6-.3.9-.6.3-.3.6-.75.6-1.35v-4.5h1.5V20c0 .3-.05 1.3.55 1.3.8 0 1-1.15 1-1.15h.45s-.15 1.9-1.6 1.9c-.95 0-1.35-.3-1.7-1.5l-1.05 1.05c-.3.25-.7.45-1.2.45-.4 0-1.05-.2-1.6-.5 0 1.15.2 2.1.2 3 0 .5-.2 1-.75 1-.5 0-.75-.4-.75-1 0-.75.5-2.4.5-4.2l-.05-5.85z"/></svg>