<svg xmlns="http://www.w3.org/2000/svg" viewBox="0 0 32 32"><path fill="#e6e6e6" d="M12.8 7.2c-6.384 0-11.2 2.234-11.2 5.2 0 2.71 4.032 4.806 9.6 5.147V20l4-3.2-4-3.2v2.34c-4.669-.322-8-2.012-8-3.54 0-1.7 4.106-3.6 9.6-3.6s9.6 1.9 9.6 3.6c0 1.04-1.544 2.156-4 2.862v1.682c3.397-.872 5.6-2.54 5.6-4.544 0-2.966-4.816-5.2-11.2-5.2z"/><path fill="#ffa6a6" d="M15.5 14.5H17v5.1c0 .85.55 1.4 1.5 1.4.3 0 .6-.3.9-.6.3-.3.6-.75.6-1.35v-4.5h1.5V20c0 .3-.05 1.3.55 1.3.8 0 1-1.15 1-1.15h.45s-.15 1.9-1.6 1.9c-.95 0-1.35-.3-1.7-1.5l-1.05 1.05c-.3.25-.7.45-1.2.45-.4 0-1.05-.2-1.6-.5 0 1.15.2 2.1.2 3 0 .5-.2 1-.75 1-.5 0-.75-.4-.75-1 0-.75.5-2.4.5-4.2l-.05-5.85z"/></svg>