<?xml version="1.0" standalone="no"?>
<svg xmlns="http://www.w3.org/2000/svg" viewBox="0 0 32 32">
    <path fill="#e6e6e6" transform="scale(0.8)" d="M8 17c0-7.98 2.793-14 6.5-14 3.387 0 6.008 5.04 6.434 12H24l-4 5-4-5h2.926C18.523 9.164 16.41 5 14.5 5 12.375 5 10 10.133 10 17s2.375 12 4.5 12c1.3 0 2.695-1.93 3.578-5h2.102c-1.09 4.246-3.176 7-5.68 7C10.793 31 8 24.98 8 17z"/>
    <path fill="#ffa6a6" transform="scale(0.5) translate(25,25)" d="M6 4h3v10.2c0 1.7 1.1 2.8 3 2.8.6 0 1.2-.6 1.8-1.2.6-.6 1.2-1.5 1.2-2.7v-9h3V15c0 .6-.1 2.6 1.1 2.6 1.6 0 2-2.3 2-2.3h.9s-.3 3.8-3.2 3.8c-1.9 0-2.7-.6-3.4-3l-2.1 2.1c-.6.5-1.4.9-2.4.9-.8 0-2.1-.4-3.2-1 0 2.3.4 4.2.4 6 0 1-.4 2-1.5 2-1 0-1.5-.8-1.5-2 0-1.5 1-4.8 1-8.4L6 4z"/>
</svg>